<svg width="88" height="88" viewBox="0 0 88 88" fill="none" xmlns="http://www.w3.org/2000/svg">
<circle cx="44" cy="44" r="44" fill="white"/>
<circle cx="44" cy="44" r="40" fill="#343799"/>
<path d="M58.9583 30.3333C58.9583 35.488 55.1714 39.6667 50.5 39.6667C45.8286 39.6667 42.0417 35.488 42.0417 30.3333C42.0417 25.1787 45.8286 21 50.5 21C55.1714 21 58.9583 25.1787 58.9583 30.3333Z" fill="#FF6588"/>
<path d="M36 51.3333C36 46.1787 40.3279 42 45.6667 42H55.3333C60.6721 42 65 46.1787 65 51.3333V53.6667C65 54.9553 63.918 56 62.5833 56H38.4167C37.082 56 36 54.9553 36 53.6667V51.3333Z" fill="#FF6588"/>
<path d="M42.9523 48.0158C45.9978 45.9934 47.9583 42.3388 47.9583 38.3333C47.9583 32.2639 43.4567 27 37.5 27C31.5433 27 27.0417 32.2639 27.0417 38.3333C27.0417 42.3388 29.0022 45.9934 32.0477 48.0158C25.9513 48.3274 21 53.2144 21 59.3333V61.6667C21 64.1255 23.0441 66 25.4167 66H49.5833C51.9559 66 54 64.1255 54 61.6667V59.3333C54 53.2144 49.0487 48.3274 42.9523 48.0158Z" fill="#FFE7EE" stroke="#343799" stroke-width="4"/>
</svg>
