<svg fill="none" xmlns="http://www.w3.org/2000/svg" viewBox="0 0 144 144">
  <mask id="analytical-thinking" maskUnits="userSpaceOnUse" x="0" y="0" width="144" height="144">
    <path d="M72 144c39.765 0 72-32.235 72-72 0-39.764-32.235-72-72-72C32.236 0 0 32.236 0 72c0 39.765 32.236 72 72 72z" fill="#fff"/>
  </mask>
  <g mask="url(#analytical-thinking)">
    <path d="M72 140c37.555 0 68-30.445 68-68S109.555 4 72 4 4 34.445 4 72s30.445 68 68 68z" fill="#FFCE7E"/>
    <path d="M72 9c34.74 0 63 28.26 63 63 0 34.74-28.26 63-63 63-34.74 0-63-28.26-63-63C9 37.26 37.26 9 72 9zm0-9C32.24 0 0 32.24 0 72s32.24 72 72 72 72-32.24 72-72S111.76 0 72 0z" fill="#343799"/>
    <path d="M64 104c22.091 0 40-17.909 40-40S86.091 24 64 24 24 41.909 24 64s17.909 40 40 40z" fill="#F2A645"/>
    <path fill-rule="evenodd" clip-rule="evenodd" d="M98 64c0-18.75-15.25-34-34-34S30 45.25 30 64s15.25 34 34 34 34-15.25 34-34zm-77 0c0-23.75 19.25-43 43-43s43 19.25 43 43a42.83 42.83 0 01-10.197 27.805c3.05 1.535 6.143 2.342 8.547 2.766l1.99-1.991a3.495 3.495 0 014.92 0 3.495 3.495 0 010 4.92l-.818.818 16.079 16.079-13.124 13.124-16.079-16.08-.818.819a3.476 3.476 0 01-4.92 0 3.495 3.495 0 010-4.92l1.99-1.99c-.423-2.404-1.23-5.497-2.765-8.547A42.83 42.83 0 0164 107c-23.75 0-43-19.25-43-43z" fill="#343799"/>
    <path fill-rule="evenodd" clip-rule="evenodd" d="M106.75 102.5a2.32 2.32 0 013.28 0l28.37 28.37a2.32 2.32 0 01-3.28 3.28l-28.37-28.37a2.32 2.32 0 010-3.28z" fill="#fff"/>
    <path d="M77.09 60.07c1.47-.22 2.85.1 3.98.78.41.25.93-.02.93-.5V51.2a2.2 2.2 0 00-2.2-2.2H69.35c-.35 0-.55-.39-.36-.68.79-1.18 1.18-2.66.94-4.23-.39-2.64-2.58-4.75-5.23-5.05A6.003 6.003 0 0058 45c0 1.23.37 2.37 1.01 3.32.19.29-.01.68-.36.68H48.2a2.2 2.2 0 00-2.2 2.2v29.6c0 1.21.98 2.2 2.2 2.2h31.6a2.2 2.2 0 002.2-2.2v-9.15c0-.46-.5-.76-.89-.52a6.003 6.003 0 01-9.07-5.83c.3-2.64 2.41-4.84 5.05-5.23z" fill="#fff"/>
  </g>
</svg>