<svg fill="none" xmlns="http://www.w3.org/2000/svg" viewBox="0 0 144 144">
  <mask id="body-lang" maskUnits="userSpaceOnUse" x="0" y="0" width="144" height="144">
    <path d="M72 144c39.764 0 72-32.236 72-72S111.764 0 72 0 0 32.236 0 72s32.236 72 72 72z" fill="#fff"/>
  </mask>
  <g mask="url(#body-lang)">
    <path d="M72 140c37.555 0 68-30.445 68-68S109.555 4 72 4 4 34.445 4 72s30.445 68 68 68z" fill="#F58565"/>
    <path d="M72 9c34.74 0 63 28.26 63 63 0 34.74-28.26 63-63 63-34.74 0-63-28.26-63-63C9 37.26 37.26 9 72 9zm0-9C32.24 0 0 32.24 0 72s32.24 72 72 72 72-32.24 72-72S111.76 0 72 0z" fill="#343799"/>
    <path d="M4.645 86.831c2.926 1.687 8.838 2.671 11.428 2.952l3.127-5.115-4.955-5.006-6.857-1.265c-2.195-.338-1.829.984-1.372 1.687l5.029 1.686H6.93l-5.486-3.373s-1.829 0-1.372 1.265c.458 1.265 1.646 5.482 4.572 7.17zM139.355 86.831c-2.926 1.687-8.838 2.671-11.428 2.952l-3.127-5.115 4.955-5.006 6.857-1.265c2.195-.338 1.829.984 1.372 1.687l-5.029 1.686h4.114l5.486-3.373s1.829 0 1.372 1.265c-.458 1.265-1.646 5.482-4.572 7.17z" fill="#fff"/>
    <path fill-rule="evenodd" clip-rule="evenodd" d="M71.828 24l.172.003.297-.003c8.088 0 14.64 7.115 14.64 15.882 0 6.072-3.148 13.532-7.768 17.534v5.246c.333.023.662.057.988.102l1.923-.318c6.336-2.288 9.84.954 10.8 2.86l3.94 9.566c.061.121.122.244.18.368l7.602 17.718 20.377-8.642 3.66 5.445-23.862 17.243c-4.025 1.816-6.862-.756-7.777-2.268l-.007-.013-5.346-7.955-2.213 37.481a66.25 66.25 0 01-17.136 2.251l-.298-.001-.298.001a66.25 66.25 0 01-17.137-2.251l-2.212-37.48-5.35 7.959-.004.007c-.915 1.513-3.751 4.085-7.777 2.269L15.36 89.761l3.66-5.445 20.378 8.643 7.6-17.72c.06-.124.12-.247.183-.37l3.939-9.563c.96-1.906 4.464-5.148 10.8-2.86l1.923.319a14.376 14.376 0 01.988-.103v-5.246c-4.62-4.002-7.768-11.462-7.768-17.534 0-8.767 6.551-15.882 14.64-15.882h.124z" fill="#343799"/>
  </g>
</svg>