<svg fill="none" xmlns="http://www.w3.org/2000/svg" viewBox="0 0 144 144">
  <mask id="candor" maskUnits="userSpaceOnUse" x="0" y="0" width="144" height="144">
    <path d="M72 144c39.765 0 72-32.235 72-72 0-39.764-32.235-72-72-72C32.236 0 0 32.236 0 72c0 39.765 32.236 72 72 72z" fill="#fff"/>
  </mask>
  <g mask="url(#candor)">
    <path d="M72 140c37.555 0 68-30.445 68-68S109.555 4 72 4 4 34.445 4 72s30.445 68 68 68z" fill="#21CBA3"/>
    <path d="M72 9c34.74 0 63 28.26 63 63 0 34.74-28.26 63-63 63-34.74 0-63-28.26-63-63C9 37.26 37.26 9 72 9zm0-9C32.24 0 0 32.24 0 72s32.24 72 72 72 72-32.24 72-72S111.76 0 72 0z" fill="#343799"/>
    <path d="M18.332 84.425c1.05 1.97 4.608 8.288 8.588 11.271 1.969 1.475 3.834 2.594 5.492 3.587 2.342 1.404 4.27 2.56 5.488 4.123.782 1.004 1.27 3.348 1.81 5.947.899 4.315 1.943 9.33 4.72 10.073 4.45 1.19 8.9-8.6 6.82-13.65-.649-1.572-1.556-3.202-2.426-4.764l-.001-.003c-1.919-3.446-3.653-6.562-2.023-7.993.283-.248.79-.55 1.462-.892.187-.044.373-.1.558-.168l19.86-7.25c2.61-.95 3.96-3.87 3.01-6.47-.706-1.934-2.498-3.182-4.443-3.303 2.186-1.16 3.242-3.808 2.373-6.187-.852-2.341-3.29-3.668-5.659-3.231a5.053 5.053 0 00.609-4.619c-.77-2.114-2.825-3.402-4.966-3.31a5.036 5.036 0 00.226-3.97 5.045 5.045 0 00-2.938-2.973 6.108 6.108 0 00-1.202-.337c-11.27-2.08-37.67 7.12-37.67 7.12H3v27.25h15.02l.312-.25z" fill="#343799"/>
    <path fill-rule="evenodd" clip-rule="evenodd" d="M130.98 92.574s-26.4 9.2-37.67 7.12c-.487-.09-.9-.209-1.248-.355a5.044 5.044 0 01-2.892-2.955 5.036 5.036 0 01.226-3.97 5.057 5.057 0 01-4.966-3.32 5.053 5.053 0 01.601-4.607c-2.367.432-4.8-.895-5.651-3.233-.87-2.38.187-5.026 2.373-6.187-1.945-.121-3.736-1.37-4.443-3.303-.95-2.6.4-5.52 3.01-6.47l19.86-7.25c.185-.068.371-.123.558-.168.673-.341 1.179-.644 1.462-.892 1.63-1.431-.104-4.547-2.023-7.993-.87-1.563-1.778-3.194-2.427-4.767-2.08-5.05 2.37-14.84 6.82-13.65 2.777.743 3.821 5.758 4.719 10.073.541 2.599 1.029 4.943 1.811 5.947 1.218 1.563 3.146 2.719 5.488 4.123 1.658.993 3.523 2.111 5.492 3.587 3.98 2.983 7.539 9.3 8.588 11.27l.312-.25h14.44c.37 2.95.58 5.95.58 9 0 6.31-.82 12.42-2.34 18.25h-12.68z" fill="#fff"/>
  </g>
</svg>