<svg fill="none" xmlns="http://www.w3.org/2000/svg" viewBox="0 0 144 144">
  <mask id="code-quality" maskUnits="userSpaceOnUse" x="0" y="0" width="144" height="144">
    <path d="M72 144c39.765 0 72-32.235 72-72 0-39.764-32.235-72-72-72C32.236 0 0 32.236 0 72c0 39.765 32.236 72 72 72z" fill="#fff"/>
  </mask>
  <g mask="url(#code-quality)">
    <path d="M72 140c37.555 0 68-30.445 68-68S109.555 4 72 4 4 34.445 4 72s30.445 68 68 68z" fill="#FFCE7E"/>
    <path d="M72 9c34.74 0 63 28.26 63 63 0 34.74-28.26 63-63 63-34.74 0-63-28.26-63-63C9 37.26 37.26 9 72 9zm0-9C32.24 0 0 32.24 0 72s32.24 72 72 72 72-32.24 72-72S111.76 0 72 0z" fill="#343799"/>
    <path fill-rule="evenodd" clip-rule="evenodd" d="M85.767 45.345a4 4 0 00-7.534-2.69l-20 56a4 4 0 007.534 2.69l20-56zm-29.13 13.988a4 4 0 01-1.97 5.303L38.6 72l16.067 7.364a4 4 0 11-3.334 7.272l-24-11a4 4 0 010-7.272l24-11a4 4 0 015.303 1.97zm30.727 0a4 4 0 015.303-1.97l24 11a4 4 0 010 7.273l-24 11a4 4 0 11-3.334-7.272L105.4 72l-16.067-7.364a4 4 0 01-1.97-5.303z" fill="#343799"/>
    <path fill-rule="evenodd" clip-rule="evenodd" d="M84 25l-2.77.69a6.261 6.261 0 00-4.54 4.54L76 33l-.69-2.77a6.23 6.23 0 00-4.54-4.54L68 25l2.77-.69a6.23 6.23 0 004.54-4.54L76 17l.69 2.77a6.23 6.23 0 004.54 4.54L84 25zM68 39l-4.15 1.04a9.36 9.36 0 00-6.81 6.81L56 51l-1.04-4.15a9.375 9.375 0 00-6.81-6.81L44 39l4.15-1.04a9.375 9.375 0 006.81-6.81L56 27l1.04 4.15a9.375 9.375 0 006.81 6.81L68 39zm29 67l-4.15 1.04a9.36 9.36 0 00-6.81 6.81L85 118l-1.04-4.15a9.375 9.375 0 00-6.81-6.81L73 106l4.15-1.04a9.375 9.375 0 006.81-6.81L85 94l1.04 4.15a9.375 9.375 0 006.81 6.81L97 106zm-26.77 13.69L73 119l-2.77-.69a6.23 6.23 0 01-4.54-4.54L65 111l-.69 2.77a6.23 6.23 0 01-4.54 4.54L57 119l2.77.69a6.23 6.23 0 014.54 4.54L65 127l.69-2.77a6.261 6.261 0 014.54-4.54z" fill="#fff"/>
  </g>
</svg>