<svg fill="none" xmlns="http://www.w3.org/2000/svg" viewBox="0 0 144 144">
  <mask id="delegation" maskUnits="userSpaceOnUse" x="0" y="0" width="144" height="144">
    <path d="M72 144c39.765 0 72-32.235 72-72 0-39.764-32.235-72-72-72C32.236 0 0 32.236 0 72c0 39.765 32.236 72 72 72z" fill="#fff"/>
  </mask>
  <g mask="url(#delegation)">
    <path d="M72 140c37.555 0 68-30.445 68-68S109.555 4 72 4 4 34.445 4 72s30.445 68 68 68z" fill="#F58565"/>
    <path d="M72 9c34.74 0 63 28.26 63 63 0 34.74-28.26 63-63 63-34.74 0-63-28.26-63-63C9 37.26 37.26 9 72 9zm0-9C32.24 0 0 32.24 0 72s32.24 72 72 72 72-32.24 72-72S111.76 0 72 0z" fill="#343799"/>
    <path d="M104 120H40c-2.75 0-5-2.25-5-5V41c0-2.75 2.25-5 5-5h64c2.75 0 5 2.25 5 5v74c0 2.75-2.25 5-5 5z" fill="#343799"/>
    <path fill-rule="evenodd" clip-rule="evenodd" d="M76 26.5c0-2.49-2.01-4.5-4.5-4.5S67 24.01 67 26.5s2.01 4.5 4.5 4.5 4.5-2.01 4.5-4.5zm3.866 4.5A9.445 9.445 0 0081 26.5c0-5.24-4.26-9.5-9.5-9.5S62 21.26 62 26.5c0 1.627.41 3.16 1.134 4.5H58c-4.4 0-8 3.6-8 8v2h44v-2c0-4.4-3.6-8-8-8h-6.134zM62.61 57.6l-15.78-7.13 4.29 16.78 4.27-3.585L69.276 79.86l-9.438 9.095L56.02 85 50 101.24l16.44-5.45-3.822-3.958 9.267-8.931 13.7 15.976-4.195 3.523 15.78 7.13-4.29-16.78-4.232 3.554L74.77 80.121l8.385-8.081L86.98 76 93 59.76l-16.44 5.45 3.817 3.952-8.215 7.917-13.71-15.987L62.61 57.6z" fill="#fff"/>
    <path d="M126.66 51.31l-21.1 34.91L98 91l.71-8.92 21.11-34.91 6.84 4.14z" fill="#fff"/>
  </g>
</svg>