<svg fill="none" xmlns="http://www.w3.org/2000/svg" viewBox="0 0 144 144">
  <path d="M72 143c39.212 0 71-31.788 71-71S111.212 1 72 1 1 32.788 1 72s31.788 71 71 71z" fill="#FF4369"/>
  <path d="M72 9c34.7 0 63 28.3 63 63s-28.3 63-63 63S9 106.7 9 72 37.3 9 72 9zm0-9C32.2 0 0 32.2 0 72s32.2 72 72 72 72-32.2 72-72S111.8 0 72 0z" fill="#343799"/>
  <path d="M25.039 36c7.294 0 13.898 3.218 18.432 8.29C48.103 39.218 54.609 36 61.903 36 75.8 36 87.136 47.606 87.136 61.943c0 3.804-.69 7.51-1.774 11.119 0 0-1.085 3.218-1.972 4.974C72.745 100.468 43.57 115 43.57 115S14.294 100.468 3.747 78.036c0 0-1.38-3.024-1.971-4.974C.693 69.55.003 65.844.003 61.943-.195 47.606 11.043 36 25.039 36z" fill="#fff"/>
  <path d="M61.903 36c7.294 0 13.898 3.218 18.432 8.29C84.968 39.218 91.473 36 98.767 36 112.665 36 124 47.606 124 61.943c0 3.804-.69 7.51-1.774 11.119 0 0-1.084 3.218-1.971 4.974C109.609 100.468 80.433 115 80.433 115s-29.274-14.532-39.82-36.964c0 0-1.38-3.024-1.972-4.974-1.084-3.511-1.774-7.218-1.774-11.119C36.67 47.606 48.005 36 61.903 36z" fill="#343799"/>
  <path d="M61.903 96.86c-7.984-6.828-13.8-13.85-17.052-20.872-.296-.683-1.282-2.926-1.774-4.292-1.085-3.51-1.578-6.632-1.578-9.655 0-5.267 1.873-10.241 5.225-14.142.098-.098.295-.195.394-.39 3.942-4.292 9.167-6.73 14.883-6.73 5.717 0 10.941 2.34 14.884 6.73.099.097.197.292.394.39a21.625 21.625 0 015.224 14.142c0 3.218-.493 6.437-1.577 9.655-.394 1.073-1.084 3.219-1.675 4.194 0 .098-.099.098-.099.195-3.45 6.925-9.265 13.947-17.25 20.774z" fill="#FF4369"/>
</svg>