<svg xmlns="http://www.w3.org/2000/svg" viewBox="0 0 144 144">
  <g fill="none">
    <mask id="inclusiveness" maskUnits="userSpaceOnUse" x="0" y="0" width="144" height="144">
      <path d="M72 144c39.765 0 72-32.235 72-72 0-39.764-32.235-72-72-72C32.236 0 0 32.236 0 72c0 39.765 32.236 72 72 72z" fill="#fff"/>
    </mask>
    <g mask="url(#inclusiveness)">
      <path d="M72 140c37.555 0 68-30.445 68-68S109.555 4 72 4 4 34.445 4 72s30.445 68 68 68z" fill="#FF4369"/>
      <path d="M72 9c34.74 0 63 28.26 63 63 0 34.74-28.26 63-63 63-34.74 0-63-28.26-63-63C9 37.26 37.26 9 72 9zm0-9C32.24 0 0 32.24 0 72s32.24 72 72 72 72-32.24 72-72S111.76 0 72 0z" fill="#343799"/>
      <path d="M50.85 31.31c8.36 0 15.88 3.7 21.15 9.6 5.27-5.9 12.79-9.6 21.15-9.6 15.93 0 28.85 13.43 28.85 30 0 4.45-.76 8.74-2.08 12.83 0 0-1.2 3.69-2.27 5.72C105.49 105.84 72 122.69 72 122.69s-33.49-16.85-45.65-42.83c0 0-1.57-3.46-2.27-5.72C22.82 70.03 22 65.76 22 61.31c0-16.57 12.92-30 28.85-30z" fill="#343799"/>
      <path fill-rule="evenodd" clip-rule="evenodd" d="M72 66.345l-5.66-5.655A15.922 15.922 0 0055.03 56c-4.1 0-8.19 1.56-11.31 4.69-6.25 6.25-6.25 16.38 0 22.63C46.84 86.44 50.94 88 55.03 88c4.1 0 8.19-1.56 11.31-4.69l5.658-5.652.002.002 11.32-11.32A7.949 7.949 0 0188.98 64c2.14 0 4.15.83 5.66 2.34A7.949 7.949 0 0196.98 72c0 2.14-.83 4.15-2.34 5.66A7.972 7.972 0 0188.97 80c-2.14 0-4.15-.83-5.66-2.34L80.66 75 75 80.66l2.66 2.66C80.78 86.44 84.88 88 88.97 88c4.09 0 8.19-1.56 11.31-4.69 6.25-6.24 6.25-16.38 0-22.62A15.922 15.922 0 0088.97 56c-4.1 0-8.19 1.56-11.31 4.69L72 66.345zm-11.31-.005A7.949 7.949 0 0055.03 64c-2.14 0-4.15.83-5.66 2.34A7.949 7.949 0 0047.03 72c0 2.14.83 4.15 2.34 5.66A7.949 7.949 0 0055.03 80c2.14 0 4.15-.83 5.65-2.34L66.34 72l-5.65-5.66z" fill="#fff"/>
    </g>
  </g>
</svg>

