<svg fill="none" xmlns="http://www.w3.org/2000/svg" viewBox="0 0 144 144">
  <mask id="leadership" maskUnits="userSpaceOnUse" x="0" y="0" width="144" height="144">
    <path d="M72 144c39.765 0 72-32.235 72-72 0-39.764-32.235-72-72-72C32.236 0 0 32.236 0 72c0 39.765 32.236 72 72 72z" fill="#fff"/>
  </mask>
  <g mask="url(#leadership)">
    <path d="M72 140c37.555 0 68-30.445 68-68S109.555 4 72 4 4 34.445 4 72s30.445 68 68 68z" fill="#FF4369"/>
    <path fill-rule="evenodd" clip-rule="evenodd" d="M72 0C32.24 0 0 32.24 0 72s32.24 72 72 72c4.678 0 9.252-.446 13.682-1.299l35.42-18.045C135.19 111.513 144 92.784 144 72c0-39.76-32.24-72-72-72zm63 72c0-34.74-28.26-63-63-63C37.26 9 9 37.26 9 72c0 34.74 28.26 63 63 63 34.74 0 63-28.26 63-63z" fill="#343799"/>
    <path d="M76.23 80.7L221.46 223H-69L76.23 80.7z" fill="#343799"/>
    <path d="M78.12 82.55l16.36 31.7-10.6-.47 6.44 11.6-12.88.51L86.31 144h38.28l12.89-3-.24-.52-59.12-57.93z" fill="#fff"/>
    <path d="M101.23 24h-27v17h27V24z" fill="#343799"/>
    <path d="M78.23 24h-4v65h4V24z" fill="#343799"/>
    <path d="M101.23 41h-11l-11-17h22v17z" fill="#fff"/>
    <path fill-rule="evenodd" clip-rule="evenodd" d="M50.23 42.5V49h27v5l-25.39 3.967-1.36 13.823 13.13 5.53c2.1.89 3.26 3.14 2.77 5.36l-5.82 26.15-5.33.17 1.57-22.62-7.575-1.834-2.133 21.693-.352 7.071-.389.457L46.23 115l-2 2-.056-.676-3.274 3.846-3.538-32.703-1.082-.017a3.92 3.92 0 01-3.82-3.37l-2.24-22.7c-.677-6.89 2.364-11.432 7.01-12.248V38.5c0-3.57 2.92-5.5 6.5-5.5 3.57 0 6.5 1.92 6.5 5.5v4z" fill="#343799"/>
  </g>
</svg>