<svg fill="none" xmlns="http://www.w3.org/2000/svg" viewBox="0 0 144 144">
  <path d="M72 143c39.212 0 71-31.788 71-71S111.212 1 72 1 1 32.788 1 72s31.788 71 71 71z" fill="#14CCA4"/>
  <path d="M72 9c34.7 0 63 28.3 63 63s-28.3 63-63 63S9 106.7 9 72 37.3 9 72 9zm0-9C32.2 0 0 32.2 0 72s32.2 72 72 72 72-32.2 72-72S111.8 0 72 0z" fill="#343799"/>
  <path d="M120 59.5c0 14.6-16 50.5-37 50.5-14.6 0-16-26-16-50.5C67 44.9 78.9 33 93.5 33S120 44.9 120 59.5z" fill="#fff"/>
  <path d="M95.5 91.3c-.4 0-.9-.1-1.2-.4-.9-.7-1-1.9-.4-2.8C101 78.8 106 65.6 106 59.5c0-6.9-5.6-12.5-12.5-12.5S81 52.6 81 59.5v6.6c5 .5 9 4.8 9 9.9 0 4-2.4 7.7-6.1 9.2-1 .4-2.2-.1-2.6-1.1-.4-1 .1-2.2 1.1-2.6 2.2-.9 3.7-3.1 3.7-5.5 0-3.3-2.7-6-6-6h-.6c-.9.1-1.7-.4-2.1-1.3l-.1-.2c-.1-.2-.1-.5-.1-.7 0-2.5-.1-5.1-.1-8.4 0-9.1 7.4-16.5 16.5-16.5S110 50.4 110 59.5c0 7.7-5.9 21.9-12.9 31-.4.5-1 .8-1.6.8z" fill="#343799"/>
  <path fill-rule="evenodd" clip-rule="evenodd" d="M39.4 43.6C48.5 50.2 54 60.8 54 72s-5.5 21.8-14.6 28.3c-1.4 1-1.7 2.9-.7 4.2.5.9 1.5 1.3 2.4 1.3.6 0 1.2-.2 1.8-.6C53.6 97.5 60 85.1 60 72c0-13.1-6.4-25.5-17.1-33.3-1.4-1-3.2-.6-4.2.7-1 1.4-.6 3.2.7 4.2zm-3.5 4.9c7.558 5.47 12.05 14.203 12.1 23.348V72.052c-.05 9.145-4.542 17.878-12.2 23.348-.5.5-1.1.6-1.7.6-.9 0-1.9-.4-2.4-1.3-1-1.3-.7-3.2.7-4.2 5.986-4.29 9.584-11.268 9.6-18.55-.016-7.282-3.614-14.26-9.6-18.55-1.3-1-1.7-2.8-.7-4.2 1-1.3 2.8-1.7 4.2-.7zM30 71.936c-.013 3.487-1.81 6.771-4.7 8.864-1.3 1-1.7 2.8-.7 4.2.6.9 1.6 1.3 2.5 1.3.6 0 1.2-.1 1.7-.6 4.447-3.162 7.136-8.278 7.199-13.609L36 72v-.07-.03-.07c-.056-5.435-2.746-10.463-7.2-13.63-1.4-1-3.2-.7-4.2.7s-.7 3.2.7 4.2c2.982 2.087 4.68 5.36 4.7 8.836z" fill="#343799"/>
</svg>