<svg width="96" height="22" viewBox="0 0 96 22" fill="none" xmlns="http://www.w3.org/2000/svg">
<path fill-rule="evenodd" clip-rule="evenodd" d="M26.1818 0.996582V5.36022H24.3117V16.581H26.1818V20.9446H16.5195V16.581H18.7013V9.90152L19.1174 8.78879H19.013L15.5844 16.581H15.4286H10.7532H10.5974L7.16883 8.78879H7.03948L7.48052 10.0262V16.581H9.66234V20.9446H0V16.581H1.87013V5.36022H0V0.996582H3.74026H8.41558H8.57143L13.0909 11.2683L17.6104 0.996582H17.7662H22.4416H26.1818ZM53.3501 16.5233C52.4899 16.5233 51.1169 16.3285 51.1169 15.1363V10.6589H53.6104V6.60697H51.1169V2.86671H45.5065V6.60697H43.6364V10.6589H45.5065V15.6194C45.5065 20.4459 49.9449 21.0849 52.4416 21.0849C53.3018 21.0849 53.9221 20.9462 53.9221 20.9462V16.5031C53.9221 16.5031 53.7382 16.5233 53.3501 16.5233ZM81.6047 13.0402C81.6047 9.21112 79.0254 6.2158 74.6151 6.2158C69.7886 6.2158 67.0706 9.73788 67.0675 13.6215C67.0675 17.4226 69.6187 21.2781 75.1667 21.2781C79.1345 21.2781 81.5751 19.2537 81.5751 19.2537L79.5506 15.2875C79.5506 15.2875 77.5262 16.5358 75.6125 16.5358C74.5309 16.5358 73.3106 16.1477 72.8945 14.622H81.494C81.494 14.622 81.6047 13.8444 81.6047 13.0402ZM74.4202 10.0994C75.4473 10.0994 75.6966 11.1529 75.6686 12.1239H73.0052C73.0613 11.569 73.228 10.0994 74.4202 10.0994ZM85.2468 16.581H83.3766V20.9462H93.039V16.5825H91.013V15.4137C91.013 12.889 92.3081 11.9026 94.8327 11.9026C95.4701 11.9026 96 12.0226 96 12.0226V6.2984C96 6.2984 95.6369 6.27034 95.3875 6.27034C93.279 6.27034 91.3932 7.88021 90.8104 9.76593H90.7543C90.7543 9.76593 90.8104 9.54307 90.8104 9.15502V8.46151C90.8104 7.0745 89.9283 6.60697 88.5974 6.60697H83.3766V10.6589H84.6234C85.0114 10.6589 85.2468 10.9223 85.2468 11.2823V16.581ZM62.961 15.1363C62.961 16.3285 64.334 16.5233 65.1943 16.5233C65.5823 16.5233 65.7662 16.5031 65.7662 16.5031V20.9462C65.7662 20.9462 65.146 21.0849 64.2857 21.0849C61.7891 21.0849 57.3506 20.4459 57.3506 15.6194V10.6589H55.4805V6.60697H57.3506V2.86671H62.961V6.60697H65.4545V10.6589H62.961V15.1363ZM35.3345 12.2345H36.1668V11.5971C36.1668 10.9316 35.3907 10.6823 34.613 10.6823C32.8099 10.6823 30.7013 12.0413 30.7013 12.0413L28.7595 8.15762C28.7595 8.15762 31.3122 6.2158 35.3065 6.2158C39.4956 6.2158 41.9642 8.37892 41.9642 12.2345V16.009C41.9642 16.369 42.1855 16.5826 42.5751 16.5826H43.4634V20.9462H38.7195C37.2499 20.9462 36.7216 19.8927 36.7216 19.1711V19.1431C36.7216 19.0324 36.7496 18.9218 36.7496 18.9218H36.6935C36.6935 18.9218 35.5839 21.1971 32.6151 21.1971C30.0904 21.1971 27.9834 19.4766 27.9834 16.9535C27.9834 12.8174 33.1699 12.2345 35.3345 12.2345ZM34.4571 17.5067C35.2675 17.5067 36.2509 16.7259 36.2509 15.367V14.7888H35.9034C34.0816 14.7888 33.4457 15.6568 33.4457 16.4376C33.4442 17.1015 33.8774 17.5067 34.4571 17.5067Z" fill="#343799"/>
</svg>
