<svg fill="none" xmlns="http://www.w3.org/2000/svg" viewBox="0 0 144 144">
  <mask id="mentorship" maskUnits="userSpaceOnUse" x="0" y="0" width="144" height="144">
    <path d="M72 144c39.765 0 72-32.235 72-72 0-39.764-32.235-72-72-72C32.236 0 0 32.236 0 72c0 39.765 32.236 72 72 72z" fill="#fff"/>
  </mask>
  <g mask="url(#mentorship)">
    <path d="M72 140c37.555 0 68-30.445 68-68S109.555 4 72 4 4 34.445 4 72s30.445 68 68 68z" fill="#21CBA3"/>
    <path fill-rule="evenodd" clip-rule="evenodd" d="M72 0C32.24 0 0 32.24 0 72s32.24 72 72 72c8.77 0 17.172-1.568 24.945-4.44l27.275-17.995C136.478 108.655 144 91.205 144 72c0-39.76-32.24-72-72-72zm63 72c0-34.74-28.26-63-63-63C37.26 9 9 37.26 9 72c0 34.74 28.26 63 63 63 34.74 0 63-28.26 63-63z" fill="#343799"/>
    <path fill-rule="evenodd" clip-rule="evenodd" d="M47.99 27.08c4.65-2.98 10.71-3.48 15.97-.77s8.37 7.94 8.64 13.45l.016-.021.588 5.48a11.439 11.439 0 015.656-6.639c3.79-1.95 8.15-1.59 11.49.56-.2 3.97-2.43 7.73-6.22 9.68-3.44 1.77-7.35 1.629-10.54-.013L76.38 74.8h-8.76l3.681-34.29c-4.444 2.294-9.888 2.484-14.671.02-5.26-2.71-8.37-7.94-8.64-13.45z" fill="#fff"/>
    <path fill-rule="evenodd" clip-rule="evenodd" d="M43 58h58v14h-3.933L91 111H53l-6.067-39H43V58z" fill="#343799"/>
    <path fill-rule="evenodd" clip-rule="evenodd" d="M34.08 81.45l19.144 17.89 26.046 1.795a265.527 265.527 0 01-4.73-4.305 236.7 236.7 0 00-.795-.735l-.02-.018a96.234 96.234 0 01-2.145-2.017l-.788-.76-.005-.004c-.712-.684-1.425-1.37-2.117-2.076a4.056 4.056 0 01-1.124-3.426 4.027 4.027 0 01.564-1.654 4.068 4.068 0 014.41-1.84c.977.234 1.944.492 2.912.751l.003.001.005.002c.396.106.793.212 1.19.316.872.223 1.736.474 2.6.725l.008.003c.49.142.98.285 1.472.422 2.72.76 5.42 1.58 8.1 2.41l8.06 2.51 8.12 2.38-1.03-.34c1.63.31 3.23.84 4.74 1.6 1.51.75 2.9 1.75 4.15 2.91 1.25 1.16 2.33 2.53 3.2 4.02.22.37.42.76.61 1.14l.33.65.64 1.29a121.596 121.596 0 01.747 1.557 108.73 108.73 0 011.643 3.663c.163.378.324.758.482 1.138.375.891.74 1.787 1.088 2.692.167.425.331.85.494 1.277l.086.223.084.226a97.944 97.944 0 011.436 4.074c.33.97.63 1.96.93 2.95.225.717.423 1.44.621 2.163l.001.003.001.004c.075.273.15.546.227.82.52 2.01.99 4.05 1.38 6.12.19 1.04.37 2.08.5 3.15.14 1.06.26 2.13.32 3.23a4.284 4.284 0 01-.808 2.715l3.388 6.405L106 159l-.056-.502c-.299.076-.612.118-.934.122a4 4 0 01-3.275-1.615 4.02 4.02 0 01-.685-1.425l-8.76-34.093-43.292-6.682-.588-.055c-1.9-.17-3.52-1.25-4.47-2.74L27.92 86.55a4.023 4.023 0 011.27-5.56c1.58-1 3.59-.76 4.89.46z" fill="#fff"/>
    <path fill-rule="evenodd" clip-rule="evenodd" d="M44.022 112.702a2 2 0 012.276-1.68l45.86 6.91a2 2 0 01-.596 3.956l-45.86-6.91a2 2 0 01-1.68-2.276z" fill="#343799"/>
  </g>
</svg>