<svg fill="none" xmlns="http://www.w3.org/2000/svg" viewBox="0 0 144 144">
  <mask id="presenting" maskUnits="userSpaceOnUse" x="0" y="-1" width="144" height="145">
    <path d="M72 144c39.765 0 72-32.235 72-72 0-39.764-32.235-72-72-72C32.236 0 0 32.236 0 72c0 39.765 32.236 72 72 72z" fill="#fff"/>
  </mask>
  <g mask="url(#presenting)">
    <path d="M72 140c37.555 0 68-30.445 68-68S109.555 4 72 4 4 34.445 4 72s30.445 68 68 68z" fill="#ADAFDE"/>
    <path d="M72 9c34.74 0 63 28.26 63 63 0 34.74-28.26 63-63 63-34.74 0-63-28.26-63-63C9 37.26 37.26 9 72 9zm0-9C32.24 0 0 32.24 0 72s32.24 72 72 72 72-32.24 72-72S111.76 0 72 0z" fill="#343799"/>
    <path d="M33 103h78V31H33v72z" fill="#fff"/>
    <g fill="#343799">
      <path d="M29 33a3 3 0 013-3h80a3 3 0 110 6H32a3 3 0 01-3-3zM29 103a3 3 0 013-3h80a3 3 0 110 6H76.28l18.407 28.926a2 2 0 01-3.374 2.148L74 109.868V138a2 2 0 11-4 0v-28.132l-17.313 27.206a2 2 0 11-3.374-2.148L67.72 106H32a3 3 0 01-3-3z"/>
    </g>
    <path d="M71 47c-12.7 0-23 10.3-23 23s10.3 23 23 23 23-10.3 23-23H71V47z" fill="#589BFF"/>
    <path d="M75 43v23h23c0-12.7-10.3-23-23-23z" fill="#343799"/>
  </g>
</svg>