<svg fill="none" xmlns="http://www.w3.org/2000/svg" viewBox="0 0 144 144">
  <mask id="product-management" maskUnits="userSpaceOnUse" x="0" y="0" width="144" height="144">
    <path d="M72 144c39.765 0 72-32.235 72-72 0-39.764-32.235-72-72-72C32.236 0 0 32.236 0 72c0 39.765 32.236 72 72 72z" fill="#fff"/>
  </mask>
  <g mask="url(#product-management)">
    <path d="M72 140c37.555 0 68-30.445 68-68S109.555 4 72 4 4 34.445 4 72s30.445 68 68 68z" fill="#ADAFDE"/>
    <path d="M72 9c34.74 0 63 28.26 63 63 0 34.74-28.26 63-63 63-34.74 0-63-28.26-63-63C9 37.26 37.26 9 72 9zm0-9C32.24 0 0 32.24 0 72s32.24 72 72 72 72-32.24 72-72S111.76 0 72 0z" fill="#343799"/>
    <path fill-rule="evenodd" clip-rule="evenodd" d="M94.459 44.286l-45.792-10.65L33.098 81.38 35 82l1.055 1.7 21.143-13.124-1.493-3.781L38.6 77.412l11.58-35.51 27.96 70.832 3.72-1.468-28.6-72.454 34.575 8.04-21.768 13.51 1.493 3.782 24.487-15.198 15.103 36.813 3.7-1.518-16.392-39.955z" fill="#fff"/>
    <path d="M50 45a9 9 0 100-18 9 9 0 000 18zM35 91a9 9 0 100-18 9 9 0 000 18zM109 94a9 9 0 100-18 9 9 0 000 18zM80 121a9 9 0 100-18 9 9 0 000 18zM93 55a9 9 0 100-18 9 9 0 000 18z" fill="#343799"/>
    <path fill-rule="evenodd" clip-rule="evenodd" d="M50 30a6 6 0 100 12 6 6 0 000-12zm-12 6c0-6.627 5.373-12 12-12s12 5.373 12 12-5.373 12-12 12-12-5.373-12-12zM35 76a6 6 0 100 12 6 6 0 000-12zm-12 6c0-6.627 5.373-12 12-12s12 5.373 12 12-5.373 12-12 12-12-5.373-12-12zM109 79a6 6 0 100 12 6 6 0 000-12zm-12 6c0-6.627 5.373-12 12-12s12 5.373 12 12-5.373 12-12 12-12-5.373-12-12zM80 106a6 6 0 100 12 6 6 0 000-12zm-12 6c0-6.627 5.373-12 12-12s12 5.373 12 12-5.373 12-12 12-12-5.373-12-12zM93 40a6 6 0 100 12 6 6 0 000-12zm-12 6c0-6.627 5.373-12 12-12s12 5.373 12 12-5.373 12-12 12-12-5.373-12-12z" fill="#fff"/>
  </g>
</svg>