<svg xmlns="http://www.w3.org/2000/svg" viewBox="0 0 144 144">
  <g fill="none">
    <mask id="productivity" maskUnits="userSpaceOnUse" x="0" y="0" width="144" height="144">
      <path d="M72 144c39.765 0 72-32.235 72-72 0-39.764-32.235-72-72-72C32.236 0 0 32.236 0 72c0 39.765 32.236 72 72 72z" fill="#fff"/>
    </mask>
    <g mask="url(#productivity)">
      <path d="M72 140c37.555 0 68-30.445 68-68S109.555 4 72 4 4 34.445 4 72s30.445 68 68 68z" fill="#21CBA3"/>
      <path d="M72 9c34.74 0 63 28.26 63 63 0 34.74-28.26 63-63 63-34.74 0-63-28.26-63-63C9 37.26 37.26 9 72 9zm0-9C32.24 0 0 32.24 0 72s32.24 72 72 72 72-32.24 72-72S111.76 0 72 0z" fill="#343799"/>
      <path fill-rule="evenodd" clip-rule="evenodd" d="M33.87 45.5v-14L46 35.17l-2.024 7.752 3.194.758v-8.85h20.318l.592-.83h7.84l.592.83H96v9.047l4.025-.955L98 35.17l12.13-3.67v14l-4.927 9.03L122 53.42v16.17l-13.4 4.16c-.045.105-.09.21-.137.315l1.667.435v14l-5.55 3.66-13.94-3.31c-2.62.98-5.44 1.75-8.41 2.3L75.92 100h-7.84l-6.31-8.85c-2.96-.55-5.78-1.32-8.41-2.3l-13.94 3.31-5.55-3.66v-14l1.667-.435a19.77 19.77 0 01-.137-.315L22 69.59V53.42l16.797 1.11-4.927-9.03zm16.158 26C49.36 70.078 49 68.567 49 67c0-8.38 10.3-15.18 23-15.18S95 58.62 95 67c0 1.567-.36 3.078-1.028 4.5H50.028z" fill="#343799"/>
      <path d="M122 55.59v-5.18l-13.4-4.16c-.83-1.96-2-3.82-3.49-5.55l5.02-9.2-5.55-3.66-13.94 3.31c-2.63-.98-5.45-1.75-8.41-2.3L75.92 20h-7.84l-6.31 8.85c-2.97.55-5.79 1.32-8.41 2.3l-13.94-3.31-5.55 3.66 5.02 9.2c-1.48 1.73-2.66 3.59-3.49 5.55L22 50.41v5.18l13.4 4.16c.83 1.96 2 3.82 3.49 5.55l-5.02 9.2 5.55 3.66 13.94-3.31c2.63.98 5.45 1.75 8.41 2.3L68.08 86h7.84l6.31-8.85c2.97-.55 5.79-1.32 8.41-2.3l13.94 3.31 5.55-3.66-5.02-9.2c1.48-1.73 2.66-3.59 3.49-5.55l13.4-4.16zM72 68.18c-12.7 0-23-6.8-23-15.18 0-8.38 10.3-15.18 23-15.18S95 44.62 95 53c0 8.38-10.3 15.18-23 15.18z" fill="#fff"/>
      <g>
        <path d="M100.03 123.5c-.67-1.42-1.03-2.93-1.03-4.5 0-8.38 10.3-15.18 23-15.18 4.9 0 9.44 1.01 13.17 2.74a71.526 71.526 0 007.29-19.73h-15.95l-.59-.83h-7.84l-.59.83H97.17v8.84l-3.19-.76L96 87.17 83.87 83.5v14l4.93 9.03-16.8-1.11v16.17l13.4 4.16c.04.11.1.21.15.31l-1.68.44v14l2.97 1.96c13.64-2.86 25.85-9.58 35.46-18.96h-22.27z" fill="#343799"/>
        <path d="M132.23 80.85L125.92 72h-7.84l-6.31 8.85c-2.97.55-5.79 1.32-8.41 2.3l-13.94-3.31-5.55 3.66 5.02 9.2c-1.48 1.73-2.66 3.59-3.49 5.55L72 102.41v5.18l13.4 4.16c.83 1.96 2 3.82 3.49 5.55l-5.02 9.2 5.55 3.66 13.94-3.31c2.63.98 5.45 1.75 8.41 2.3l1.64 2.3c4.76-3.33 9.1-7.21 12.94-11.55-1.41.18-2.86.27-4.35.27-12.7 0-23-6.8-23-15.18 0-8.38 10.3-15.18 23-15.18 7.54 0 14.23 2.4 18.43 6.1 1.52-4.33 2.64-8.84 3.31-13.5l-3.1.74c-2.62-.98-5.44-1.76-8.41-2.3z" fill="#fff"/>
      </g>
    </g>
  </g>
</svg>