<svg fill="none" xmlns="http://www.w3.org/2000/svg" viewBox="0 0 144 144">
  <mask id="public-speaking" maskUnits="userSpaceOnUse" x="0" y="-1" width="144" height="145">
    <path d="M72 144c39.765 0 72-32.235 72-72 0-39.764-32.235-72-72-72C32.236 0 0 32.236 0 72c0 39.765 32.236 72 72 72z" fill="#fff"/>
  </mask>
  <g mask="url(#public-speaking)">
    <path d="M72 140c37.555 0 68-30.445 68-68S109.555 4 72 4 4 34.445 4 72s30.445 68 68 68z" fill="#589BFF"/>
    <path d="M72 9c34.74 0 63 28.26 63 63 0 34.74-28.26 63-63 63-34.74 0-63-28.26-63-63C9 37.26 37.26 9 72 9zm0-9C32.24 0 0 32.24 0 72s32.24 72 72 72 72-32.24 72-72S111.76 0 72 0z" fill="#343799"/>
    <path fill-rule="evenodd" clip-rule="evenodd" d="M72.3 40.04l6.76-4.42c2.3-1.5 2.95-4.61 1.45-6.91l-.61-.93c-1.5-2.3-4.61-2.95-6.91-1.45l-6.76 4.42c-1.796 1.171-2.586 3.324-2.132 5.306-4.414 2.855-7.348 7.822-7.348 13.444v29c0 8.805 7.195 16 16 16H76c8.805 0 16-7.195 16-16v-5.83h-4v5.83c0 6.595-5.405 12-12 12h-3.25c-6.595 0-12-5.405-12-12v-29c0-4.162 2.152-7.85 5.398-10.005 1.638 1.54 4.19 1.825 6.152.545z" fill="#fff"/>
    <path fill-rule="evenodd" clip-rule="evenodd" d="M103 81h8.04l4.46-21h-87l4.46 21H41v56h62V81z" fill="#343799"/>
  </g>
</svg>