<svg fill="none" xmlns="http://www.w3.org/2000/svg" viewBox="0 0 144 144">
  <mask id="resilience" maskUnits="userSpaceOnUse" x="0" y="0" width="144" height="144">
    <path d="M72 144c39.765 0 72-32.235 72-72 0-39.764-32.235-72-72-72C32.236 0 0 32.236 0 72c0 39.765 32.236 72 72 72z" fill="#fff"/>
  </mask>
  <g mask="url(#resilience)">
    <path d="M72 140c37.555 0 68-30.445 68-68S109.555 4 72 4 4 34.445 4 72s30.445 68 68 68z" fill="#F58565"/>
    <path d="M72 9c34.74 0 63 28.26 63 63 0 34.74-28.26 63-63 63-34.74 0-63-28.26-63-63C9 37.26 37.26 9 72 9zm0-9C32.24 0 0 32.24 0 72s32.24 72 72 72 72-32.24 72-72S111.76 0 72 0z" fill="#343799"/>
    <path fill-rule="evenodd" clip-rule="evenodd" d="M41.262 98.195l42.436 4.265 16.308-4.003L88.24 93.06c-.79-.36-.39-1.55.46-1.36l20.115 4.595 24.175-5.935.89 2.58-37.069 10.838 29.747 2.99-.435 4.325-69.923-7.028-36.4 10.455-3.78-5.49 28.258-6.163-35.865-3.604.434-4.326 19.102 1.92L49.73 92.03l-9.17-3.61c-.66-.26-.35-1.25.34-1.08l20.05 4.76-19.688 6.095zM57.94 119.87l15.85-4.82c.5-.15.81.54.36.82l-9.75 5.85 16.6 16.6H69.32l-11.38-18.45z" fill="#343799"/>
    <path d="M74 64.71h-4v39.21h4V64.71z" fill="#fff"/>
    <path fill-rule="evenodd" clip-rule="evenodd" d="M80.85 44.11c0 .98-.096 2.014-.276 3.06.94-.495 1.894-.906 2.826-1.21 5.98-1.94 9.89.94 11.39 5.57 1.51 4.63.04 9.26-5.94 11.2-.932.302-1.945.53-2.997.682a18.21 18.21 0 012.027 2.318c3.7 5.09 2.16 9.69-1.77 12.55-3.93 2.86-8.8 2.9-12.5-2.19a18.187 18.187 0 01-1.574-2.633 18.234 18.234 0 01-1.566 2.623c-3.7 5.09-8.55 5.05-12.49 2.19-3.94-2.85-5.48-7.46-1.78-12.55a18.2 18.2 0 012.018-2.31 18.262 18.262 0 01-2.988-.68c-5.99-1.94-7.45-6.57-5.94-11.2 1.5-4.63 5.4-7.51 11.39-5.57.931.302 1.885.712 2.825 1.207a18.174 18.174 0 01-.275-3.057c0-6.29 3.94-9.11 8.81-9.11 4.87 0 8.81 2.82 8.81 9.11z" fill="#fff"/>
    <path d="M72.04 68a9 9 0 100-18 9 9 0 000 18z" fill="#343799"/>
  </g>
</svg>