<svg width="88" height="88" viewBox="0 0 88 88" fill="none" xmlns="http://www.w3.org/2000/svg">
<circle cx="44" cy="44" r="42" fill="white" stroke="#E6F2FF" stroke-width="4"/>
<path d="M35.5 25.3334C35.5 28.2789 33.2148 30.6667 30.3958 30.6667C27.5769 30.6667 25.2917 28.2789 25.2917 25.3334C25.2917 22.3878 27.5769 20 30.3958 20C33.2148 20 35.5 22.3878 35.5 25.3334Z" fill="#589BFF"/>
<path d="M21 37.3334C21 34.3878 23.6117 32 26.8333 32H34.1667C37.3883 32 40 34.3878 40 37.3334V38.6667C40 39.4031 39.3471 40 38.5417 40H22.4583C21.6529 40 21 39.4031 21 38.6667V37.3334Z" fill="#589BFF"/>
<path d="M68 58C68 63.5228 63.5228 68 58 68C52.4772 68 48 63.5228 48 58C48 52.4772 52.4772 48 58 48C63.5228 48 68 52.4772 68 58Z" fill="#21CBA3"/>
<path d="M48 22.5C48 21.1193 49.1193 20 50.5 20H65.5C66.8807 20 68 21.1193 68 22.5V37.5C68 38.8807 66.8807 40 65.5 40H50.5C49.1193 40 48 38.8807 48 37.5V22.5Z" fill="#FF6588"/>
<path fill-rule="evenodd" clip-rule="evenodd" d="M20.7169 56.2694C19.761 57.2252 19.761 58.7749 20.7169 59.7307L28.2694 67.2832C29.2252 68.239 30.7748 68.239 31.7306 67.2832L39.2831 59.7307C40.239 58.7749 40.239 57.2252 39.2831 56.2694L31.7306 48.7169C30.7748 47.7611 29.2252 47.7611 28.2694 48.7169L20.7169 56.2694Z" fill="#FFCE7E"/>
</svg>