<svg fill="none" xmlns="http://www.w3.org/2000/svg" viewBox="0 0 144 144">
  <mask id="storytelling" maskUnits="userSpaceOnUse" x="0" y="0" width="144" height="144">
    <path d="M72 144c39.765 0 72-32.235 72-72 0-39.764-32.235-72-72-72C32.236 0 0 32.236 0 72c0 39.765 32.236 72 72 72z" fill="#fff"/>
  </mask>
  <g mask="url(#storytelling)">
    <path d="M72 140c37.555 0 68-30.445 68-68S109.555 4 72 4 4 34.445 4 72s30.445 68 68 68z" fill="#FFCE7E"/>
    <path d="M72 9c34.74 0 63 28.26 63 63 0 34.74-28.26 63-63 63-34.74 0-63-28.26-63-63C9 37.26 37.26 9 72 9zm0-9C32.24 0 0 32.24 0 72s32.24 72 72 72 72-32.24 72-72S111.76 0 72 0z" fill="#343799"/>
    <path d="M79.51 62.64v-5.78C84.56 52.44 88 44.23 88 37.54c0-9.66-7.16-17.5-16-17.5s-16 7.84-16 17.5c0 6.69 3.44 14.91 8.49 19.32v5.78c-9.26.66-16.16 9.08-14.76 18.42l3.54 60.46A71.851 71.851 0 0072 144c6.48 0 12.76-.87 18.73-2.48l3.54-60.46c1.41-9.34-5.49-17.76-14.76-18.42zM113.977 93.157c.457-5.227-2.517-9.756-6.643-10.118-4.127-.36-7.843 3.583-8.3 8.81-.458 5.227 2.516 9.757 6.643 10.118 4.126.361 7.842-3.583 8.3-8.81zM38.333 101.963c4.126-.362 7.1-4.891 6.643-10.118-.458-5.227-4.174-9.171-8.3-8.81-4.127.361-7.1 4.891-6.643 10.118.457 5.227 4.173 9.17 8.3 8.81z" fill="#343799"/>
    <path d="M40 112l32 9V77l-36-9 4 44z" fill="#fff"/>
    <path d="M104 112l-32 9V77l36-9-4 44z" fill="#343799"/>
    <path d="M72 80l35.72-8.93L108 68l-36 9-36-9 .28 3.07L72 80z" fill="#fff"/>
    <path d="M34.92 101.33c1.42.83 9.42 1.92 12.42.83 3-1.08 1.08-11-10-13.75s-1.58 6.67-1.58 6.67l-.84 6.25z" fill="#343799"/>
  </g>
</svg>