<svg fill="none" xmlns="http://www.w3.org/2000/svg" viewBox="0 0 144 144">
  <mask id="supportiveness" maskUnits="userSpaceOnUse" x="0" y="0" width="144" height="144">
    <path d="M72 144c39.765 0 72-32.235 72-72 0-39.764-32.235-72-72-72C32.236 0 0 32.236 0 72c0 39.765 32.236 72 72 72z" fill="#fff"/>
  </mask>
  <g mask="url(#supportiveness)">
    <path d="M72 140c37.555 0 68-30.445 68-68S109.555 4 72 4 4 34.445 4 72s30.445 68 68 68z" fill="#FFABC2"/>
    <path fill-rule="evenodd" clip-rule="evenodd" d="M72 0C32.24 0 0 32.24 0 72c0 39.091 31.164 70.913 70 71.973L72 142l2 1.973c38.836-1.06 70-32.882 70-71.973 0-39.76-32.24-72-72-72zm63 72c0-34.74-28.26-63-63-63C37.26 9 9 37.26 9 72c0 34.74 28.26 63 63 63 34.74 0 63-28.26 63-63z" fill="#343799"/>
    <path fill-rule="evenodd" clip-rule="evenodd" d="M74 64h-4v26.287c-2.212-2.937-5.24-5.642-8.923-7.769-8.762-5.058-18.509-5.271-24.11-1.077-4.04.549-7.437.549-7.437.549s1.382 3.194 2.948 7.382c-.716 6.908 4.328 15.136 13.01 20.148 8.975 5.183 18.985 5.28 24.512.762V144h4v-33.254L41.2 89.05 74 105.405v-2.081a13.31 13.31 0 000-4.031V64z" fill="#fff"/>
    <path d="M59.73 21c4.85 0 9.21 2.14 12.27 5.57C75.06 23.14 79.42 21 84.27 21 93.51 21 101 28.79 101 38.4c0 2.58-.44 5.07-1.21 7.44 0 0-.7 2.14-1.31 3.32C91.43 64.23 72 74 72 74s-19.43-9.77-26.48-24.84c0 0-.91-2.01-1.31-3.32-.74-2.38-1.21-4.86-1.21-7.44C43 28.79 50.49 21 59.73 21z" fill="#343799"/>
  </g>
</svg>