<svg fill="none" xmlns="http://www.w3.org/2000/svg" viewBox="0 0 144 144">
  <mask id="user_research" maskUnits="userSpaceOnUse" x="0" y="0" width="144" height="144">
    <path d="M72 144c39.765 0 72-32.235 72-72 0-39.764-32.235-72-72-72C32.236 0 0 32.236 0 72c0 39.765 32.236 72 72 72z" fill="#fff"/>
  </mask>
  <g mask="url(#user_research)">
    <path d="M72 140c37.555 0 68-30.445 68-68S109.555 4 72 4 4 34.445 4 72s30.445 68 68 68z" fill="#ADAFDE"/>
    <path d="M72 9c34.74 0 63 28.26 63 63 0 34.74-28.26 63-63 63-34.74 0-63-28.26-63-63C9 37.26 37.26 9 72 9zm0-9C32.24 0 0 32.24 0 72s32.24 72 72 72 72-32.24 72-72S111.76 0 72 0z" fill="#343799"/>
    <path fill-rule="evenodd" clip-rule="evenodd" d="M79.5 25H79v21.836l34.98 59.144c2.9 4.9-.72 11.02-6.52 11.02H36.54c-5.79 0-9.42-6.12-6.52-11.02L65 46.836V25h-.5c-2.47 0-4.5-2.02-4.5-4.5 0-2.47 2.02-4.5 4.5-4.5h15c2.47 0 4.5 2.02 4.5 4.5S81.97 25 79.5 25z" fill="#fff"/>
    <path fill-rule="evenodd" clip-rule="evenodd" d="M35 23c0-3.31-2.69-6-6-6s-6 2.69-6 6 2.69 6 6 6 6-2.69 6-6zm-16 0c0-5.52 4.48-10 10-10s10 4.48 10 10-4.48 10-10 10-10-4.48-10-10zm25.5 39a3.5 3.5 0 100-7 3.5 3.5 0 000 7zM31 69c2.21 0 4 1.79 4 4s-1.79 4-4 4-4-1.79-4-4 1.79-4 4-4zm0-4c-4.42 0-8 3.58-8 8s3.58 8 8 8 8-3.58 8-8-3.58-8-8-8z" fill="#fff"/>
    <path fill-rule="evenodd" clip-rule="evenodd" d="M115 36a5 5 0 11-10 0 5 5 0 0110 0zm-13 17c2.21 0 4 1.79 4 4s-1.79 4-4 4-4-1.79-4-4 1.79-4 4-4zm0-4c-4.42 0-8 3.58-8 8s3.58 8 8 8 8-3.58 8-8-3.58-8-8-8zm9.5 31a3.5 3.5 0 100-7 3.5 3.5 0 000 7z" fill="#343799"/>
    <path d="M72 111c11.598 0 21-9.402 21-21s-9.402-21-21-21-21 9.402-21 21 9.402 21 21 21z" fill="#FFCE7E"/>
    <path fill-rule="evenodd" clip-rule="evenodd" d="M63.5 90c1.38 0 2.5-1.567 2.5-3.5S64.88 83 63.5 83 61 84.567 61 86.5s1.12 3.5 2.5 3.5zm8.5 12c-4.73 0-9.28-1.43-13.15-4.12a1.994 1.994 0 01-.5-2.78c.63-.9 1.88-1.13 2.79-.5C64.34 96.82 68.09 98 72 98c4.04 0 7.9-1.25 11.16-3.62a1.998 1.998 0 012.35 3.23A22.84 22.84 0 0172 102zm11-15.5c0 1.933-1.12 3.5-2.5 3.5S78 88.433 78 86.5s1.12-3.5 2.5-3.5 2.5 1.567 2.5 3.5z" fill="#343799"/>
  </g>
</svg>